<svg width="11" height="11" viewBox="0 0 11 11" fill="none" xmlns="http://www.w3.org/2000/svg">
<path d="M5.65991 1.5528C5.70443 1.49346 5.73078 1.42248 5.73577 1.34847C5.74076 1.27446 5.72418 1.20058 5.68803 1.13581C5.65188 1.07103 5.59771 1.01813 5.5321 0.983513C5.46649 0.948899 5.39225 0.934059 5.31838 0.940792C2.55032 1.19337 1.00524 3.37042 0.837544 5.59605C0.669845 7.82577 1.87902 10.1848 4.64707 10.7938C7.55419 11.4329 10.5124 9.34326 10.7906 6.3732C10.7975 6.29967 10.783 6.2257 10.7489 6.16019C10.7148 6.09468 10.6625 6.04041 10.5983 6.00391C10.5341 5.9674 10.4607 5.95022 10.387 5.95442C10.3133 5.95861 10.2423 5.98402 10.1827 6.02758C8.73217 7.08543 7.0741 6.70043 6.02292 5.6574C4.97275 4.61489 4.59134 2.97878 5.65991 1.5528Z" fill="white"/>
</svg>
