<svg width="22" height="22" viewBox="0 0 22 22" fill="none" xmlns="http://www.w3.org/2000/svg">
<path d="M10 0C4.475 0 0 2.18778 0 4.88889C0 7.59 4.475 9.77778 10 9.77778C15.525 9.77778 20 7.59 20 4.88889C20 2.18778 15.525 0 10 0ZM0 7.33333V11C0 13.7011 4.475 15.8889 10 15.8889C15.525 15.8889 20 13.7011 20 11V7.33333C20 10.0344 15.525 12.2222 10 12.2222C4.475 12.2222 0 10.0344 0 7.33333ZM0 13.4444V17.1111C0 19.8122 4.475 22 10 22C15.525 22 20 19.8122 20 17.1111V13.4444C20 16.1456 15.525 18.3333 10 18.3333C4.475 18.3333 0 16.1456 0 13.4444Z" fill="#718096"/>
</svg>
